<?xml version="1.0" encoding="UTF-8" standalone="no"?>
<svg
   xmlns:dc="http://purl.org/dc/elements/1.1/"
   xmlns:cc="http://creativecommons.org/ns#"
   xmlns:rdf="http://www.w3.org/1999/02/22-rdf-syntax-ns#"
   xmlns:svg="http://www.w3.org/2000/svg"
   xmlns="http://www.w3.org/2000/svg"
   xmlns:sodipodi="http://sodipodi.sourceforge.net/DTD/sodipodi-0.dtd"
   xmlns:inkscape="http://www.inkscape.org/namespaces/inkscape"
   width="300"
   height="300"
   viewBox="0 0 300 300"
   version="1.1"
   id="svg8"
   inkscape:version="1.0.2 (e86c8708, 2021-01-15)"
   sodipodi:docname="earth1.svg">
  <defs
     id="defs2">
    <clipPath
       clipPathUnits="userSpaceOnUse"
       id="clipPath1319">
      <circle
         style="fill:#0088aa;fill-rule:evenodd"
         id="circle1321"
         cx="152.55553"
         cy="151.54521"
         r="134.37009" />
      <animateTransform
        attributeName="transform"
        type="translate"
        from="0 0"
        to="426.211 0"
        begin="earth_1.begin"
        dur="15s"
    />   
    </clipPath>
  </defs>
  <sodipodi:namedview
     id="base"
     pagecolor="#ffffff"
     bordercolor="#666666"
     borderopacity="1.0"
     inkscape:pageopacity="0.0"
     inkscape:pageshadow="2"
     inkscape:zoom="1.5470625"
     inkscape:cx="170.78706"
     inkscape:cy="124.24925"
     inkscape:document-units="px"
     inkscape:current-layer="layer1"
     inkscape:document-rotation="0"
     showgrid="false"
     units="px"
     inkscape:window-width="1252"
     inkscape:window-height="793"
     inkscape:window-x="23"
     inkscape:window-y="23"
     inkscape:window-maximized="0" />
  <metadata
     id="metadata5">
    <rdf:RDF>
      <cc:Work
         rdf:about="">
        <dc:format>image/svg+xml</dc:format>
        <dc:type
           rdf:resource="http://purl.org/dc/dcmitype/StillImage" />
        <dc:title></dc:title>
      </cc:Work>
    </rdf:RDF>
  </metadata>
  <g
     inkscape:label="Layer 1"
     inkscape:groupmode="layer"
     id="layer1">
    <circle
       style="fill:#0088aa;fill-rule:evenodd"
       id="path26"
       cx="152.55553"
       cy="151.54521"
       r="134.37009" />
    <g
       id="g1275" />
    <g
       id="g1282" />
    <path
       id="path1297"
       style="fill:#d4ff2a;stroke-width:0.519256"
       d="M 207.56445 28.054688 C 198.94833 28.106322 187.99032 29.711663 180.06055 32.492188 C 176.4302 33.765152 173.00189 34.905478 172.44336 35.027344 L 171.42773 35.25 L 172.6582 35.773438 C 173.46281 36.11673 173.68214 36.432038 173.29297 36.683594 C 171.99815 37.520538 172.73693 38.153236 174.62109 37.820312 C 178.92758 37.059358 181.81598 38.567368 181.83008 41.585938 C 181.83436 42.499403 182.19095 43.55267 182.62305 43.927734 C 183.22304 44.448523 183.26131 44.706575 182.7832 45.015625 C 182.28756 45.336196 182.28707 45.585203 182.78516 46.212891 C 183.30628 46.869589 183.21312 47.067344 182.24414 47.375 C 177.35994 48.925751 177.25644 57.514503 182.08984 60.083984 L 182.0918 60.083984 C 185.00569 61.631199 186.91104 60.548737 191.16602 54.925781 C 192.47198 53.199966 193.45214 52.404297 194.26758 52.404297 C 194.9231 52.404297 198.50634 51.245313 202.23047 49.828125 C 205.95457 48.410944 209.686 47.076278 210.52344 46.863281 C 211.9064 46.511552 211.9647 46.413657 211.1582 45.796875 C 209.79685 44.755786 210.08168 44.512928 212.30078 44.824219 C 214.77052 45.170677 215.01581 44.267705 212.93555 42.486328 L 211.53906 41.291016 L 213.24023 41.271484 C 214.17542 41.260979 215.73612 40.857828 216.70898 40.375 L 218.47852 39.496094 L 218.16602 37.759766 C 217.79435 35.687751 219.69197 33.845617 223.6543 32.433594 C 226.89726 31.27792 227.31426 30.37303 224.41211 30.789062 C 222.59055 31.050191 221.60793 30.841285 219.38281 29.720703 C 217.06064 28.55124 212.73413 28.023707 207.56445 28.054688 z M 633.77539 28.054688 C 625.15926 28.106321 614.20126 29.711663 606.27148 32.492188 C 602.64113 33.765152 599.21283 34.905478 598.6543 35.027344 L 597.63867 35.25 L 598.86914 35.773438 C 599.67375 36.116729 599.89308 36.432038 599.50391 36.683594 C 598.20909 37.520538 598.94787 38.153236 600.83203 37.820312 C 605.13852 37.059359 608.02692 38.567368 608.04102 41.585938 C 608.0453 42.499403 608.40188 43.55267 608.83398 43.927734 C 609.43397 44.448523 609.47225 44.706575 608.99414 45.015625 C 608.4985 45.336196 608.498 45.585203 608.99609 46.212891 C 609.51721 46.869589 609.42406 47.067344 608.45508 47.375 C 603.57038 48.925908 603.46783 57.515463 608.30273 60.083984 C 611.21753 61.632453 613.12119 60.549773 617.37695 54.925781 C 618.68291 53.199966 619.66308 52.404297 620.47852 52.404297 C 621.13404 52.404297 624.71728 51.245313 628.44141 49.828125 C 632.16551 48.410944 635.89693 47.076278 636.73438 46.863281 C 638.11734 46.511552 638.17564 46.413657 637.36914 45.796875 C 636.00779 44.755786 636.29262 44.512928 638.51172 44.824219 C 640.98146 45.170677 641.22674 44.267705 639.14648 42.486328 L 637.75 41.291016 L 639.45117 41.271484 C 640.38636 41.260979 641.94706 40.857828 642.91992 40.375 L 644.68945 39.496094 L 644.37695 37.759766 C 644.00528 35.687751 645.90486 33.845617 649.86719 32.433594 C 653.11015 31.27792 653.5252 30.37303 650.62305 30.789062 C 648.80149 31.050192 647.81887 30.841285 645.59375 29.720703 C 643.27158 28.55124 638.94507 28.023707 633.77539 28.054688 z M 179.91602 29.335938 C 173.53669 29.354131 161.60073 30.023244 160.56055 30.605469 C 159.94967 30.947398 158.17925 31.442796 156.62695 31.707031 C 151.63235 32.557206 151.31078 34.807927 156.16602 34.933594 L 158.22656 34.986328 L 156.45117 35.408203 C 155.47377 35.63952 153.35964 35.990999 151.75391 36.189453 L 148.83398 36.548828 L 148.83398 37.839844 L 148.83398 39.128906 L 154.16602 39.128906 C 157.38172 39.128906 159.49609 38.91796 159.49609 38.597656 C 159.49609 38.28981 157.86015 38.066406 155.60352 38.066406 C 150.59285 38.066406 150.9593 37.787029 156.95703 37.033203 C 160.15681 36.631045 162.89271 35.912287 165.08203 34.898438 C 166.89721 34.057843 169.52363 33.231379 170.91992 33.0625 C 173.23571 32.782407 182.04225 30.892276 183.86914 30.283203 C 184.53467 30.061322 184.53001 29.971322 183.83398 29.5625 C 183.55159 29.396631 182.04246 29.329873 179.91602 29.335938 z M 606.12695 29.335938 C 599.74763 29.354131 587.81167 30.023244 586.77148 30.605469 C 586.1606 30.947398 584.39019 31.442796 582.83789 31.707031 C 577.84329 32.557206 577.52171 34.807927 582.37695 34.933594 L 584.4375 34.986328 L 582.66211 35.408203 C 581.68471 35.63952 579.57057 35.990999 577.96484 36.189453 L 575.04492 36.548828 L 575.04492 37.839844 L 575.04492 39.128906 L 580.37695 39.128906 C 583.59265 39.128906 585.70703 38.91796 585.70703 38.597656 C 585.70703 38.28981 584.07108 38.066406 581.81445 38.066406 C 576.80378 38.066406 577.17219 37.787029 583.16992 37.033203 C 586.3697 36.631045 589.10365 35.912287 591.29297 34.898438 C 593.10815 34.057842 595.73652 33.231379 597.13281 33.0625 C 599.4486 32.782407 608.25319 30.892276 610.08008 30.283203 C 610.74561 30.061322 610.74095 29.971322 610.04492 29.5625 C 609.76252 29.396631 608.25339 29.329872 606.12695 29.335938 z M 320.75 31.226562 C 320.50949 31.244123 320.43933 31.501894 320.5332 32.011719 C 320.66486 32.726721 321.44756 33.194966 323.25 33.632812 C 326.73854 34.48019 327.55859 34.471142 327.55859 33.589844 C 327.55859 33.093876 326.55183 32.613592 324.65234 32.201172 C 323.05377 31.854094 321.43144 31.443397 321.04688 31.289062 C 320.92859 31.241587 320.83017 31.220709 320.75 31.226562 z M 746.96094 31.226562 C 746.72043 31.244123 746.65026 31.501894 746.74414 32.011719 C 746.8758 32.726721 747.6585 33.194966 749.46094 33.632812 C 752.94948 34.48019 753.76953 34.471142 753.76953 33.589844 C 753.76953 33.093876 752.76277 32.613592 750.86328 32.201172 C 749.26471 31.854094 747.64237 31.443398 747.25781 31.289062 C 747.13953 31.241587 747.04111 31.22071 746.96094 31.226562 z M 259.39453 32.228516 C 253.81505 32.237809 247.84375 32.96349 247.84375 33.632812 C 247.84375 34.098964 248.47083 34.349609 249.63867 34.349609 C 251.25597 34.349609 251.38178 34.451469 250.9082 35.376953 C 250.61912 35.941883 250.38281 36.533472 250.38281 36.691406 C 250.38281 37.147799 253.6637 36.353817 253.85352 35.851562 C 254.23372 34.845523 255.96219 34.309802 256.98242 34.880859 C 257.77476 35.324356 257.99805 35.283516 257.99805 34.699219 C 257.99805 34.287352 258.68371 33.808053 259.52148 33.632812 C 261.55662 33.207116 261.46782 32.224716 259.39453 32.228516 z M 685.60547 32.228516 C 680.02599 32.237809 674.05469 32.96349 674.05469 33.632812 C 674.05469 34.098965 674.68177 34.349609 675.84961 34.349609 C 677.46691 34.349609 677.59272 34.451469 677.11914 35.376953 C 676.83006 35.941883 676.59375 36.533472 676.59375 36.691406 C 676.59375 37.147799 679.87463 36.353817 680.06445 35.851562 C 680.44465 34.845523 682.17313 34.309802 683.19336 34.880859 C 683.9857 35.324356 684.20898 35.283516 684.20898 34.699219 C 684.20898 34.287352 684.89465 33.808053 685.73242 33.632812 C 687.76756 33.207116 687.67876 32.224716 685.60547 32.228516 z M 333.90625 35.445312 L 332.61328 36.425781 C 331.69743 37.120516 330.15949 37.468781 327.34961 37.617188 C 323.75442 37.80706 323.27658 37.962784 322.27734 39.273438 C 321.35688 40.480742 320.7777 40.720703 318.78125 40.720703 C 316.0417 40.720703 315.80494 41.1402 317.78516 42.484375 L 319.18164 43.433594 L 317.91211 43.097656 C 317.21396 42.912903 316.20927 42.632677 315.67969 42.476562 C 314.89267 42.244562 314.76984 42.405626 315.00781 43.357422 C 315.23056 44.248294 315.11776 44.449844 314.52734 44.212891 C 314.10289 44.042544 313.1802 43.751106 312.47656 43.566406 L 311.19727 43.230469 L 312.05664 44.603516 C 312.52964 45.358494 313.93458 46.382376 315.17773 46.878906 C 316.42085 47.375443 317.57212 48.009225 317.73633 48.287109 C 317.90053 48.564992 317.5302 48.510883 316.91406 48.166016 C 316.29793 47.821148 315.75674 47.618174 315.71094 47.714844 C 314.03518 51.244757 312.87987 52.133717 311.64648 50.84375 C 311.22234 50.40014 311.3683 50.165464 312.20898 49.935547 C 313.64556 49.542638 313.7251 49.852585 311.08984 45.552734 C 308.64466 41.56301 307.01712 40.477482 305.89258 42.085938 C 304.93205 43.459795 305.05461 44.608884 306.34766 46.328125 L 307.47852 47.830078 L 306.47461 47.392578 C 304.35312 46.466975 300.34524 46.42454 298.70703 47.310547 C 297.57735 47.921528 295.9854 48.145206 293.28516 48.072266 C 290.05967 47.98518 289.22726 48.150361 287.9668 49.125 C 286.08345 50.58171 285.22406 50.581277 284.30078 49.126953 C 283.38882 47.690458 282.10969 48.246713 282.87695 49.746094 C 283.62452 51.207038 283.53754 51.341797 281.85156 51.341797 C 280.71106 51.341797 280.17084 51.680699 279.74414 52.660156 C 279.30386 53.670626 278.90303 53.906675 278.02344 53.675781 C 277.2096 53.462148 276.8256 53.632525 276.70312 54.259766 C 276.56399 54.972376 276.13764 54.778073 274.5 53.263672 L 272.46875 51.386719 L 275.58008 51.363281 C 283.77792 51.30503 279.13627 47.98368 267.63477 45.677734 C 259.89425 44.125826 255.473 45.604117 249.875 51.619141 C 248.05983 53.56954 245.60288 55.611906 244.41602 56.15625 L 242.25781 57.146484 L 242.25781 59.835938 C 242.25781 62.99384 242.90346 63.489964 245.91797 62.648438 C 248.30749 61.981381 249.07474 62.572126 249.88086 65.703125 C 250.17826 66.858252 250.65319 67.804688 250.93555 67.804688 C 253.80078 67.804688 257.24996 62.169011 255.69727 60.025391 C 254.5449 58.434439 254.83696 57.272649 256.70898 55.994141 C 257.67512 55.334309 258.73153 54.277081 259.05664 53.644531 C 259.73823 52.3184 261.21392 51.777335 262.64258 52.330078 C 263.53925 52.676984 263.43759 52.898698 261.57812 54.644531 C 257.74264 58.245663 259.45412 61.233137 265.0332 60.675781 C 268.71851 60.307615 268.46567 61.03876 264.68164 61.691406 C 262.39393 62.085974 262.33697 62.223417 263.36523 64.853516 L 263.76758 65.884766 L 261.97656 64.728516 C 259.8869 63.377766 259.51843 63.570319 259.82617 65.859375 C 260.25535 69.051761 253.80928 71.208653 248.22266 69.742188 L 246.95117 69.410156 L 247.20898 67.013672 C 247.5003 64.310491 246.82308 63.851602 245.54688 65.888672 C 245.06096 66.664061 244.87455 67.671213 245.06641 68.470703 C 245.35042 69.654135 244.99568 70.020979 241.42383 72.244141 C 237.11499 74.926023 235.3859 75.37839 235.89844 73.689453 C 236.06826 73.129901 235.96012 72.513526 235.6582 72.318359 C 234.89087 71.822374 232.83712 68.336607 232.37305 66.742188 C 231.95646 65.310888 230.16853 63.025391 229.46484 63.025391 C 228.1396 63.025391 228.03721 65.881166 229.29492 67.779297 C 230.76367 69.995915 230.93081 71.617834 229.79297 72.605469 C 229.35997 72.981315 229.0742 73.889897 229.1582 74.625 L 229.31055 75.962891 L 232.79102 75.828125 C 235.35585 75.728716 236.17451 75.855824 235.90234 76.316406 C 235.39315 77.178057 231.59137 78.929119 230.19922 78.943359 C 228.81488 78.957491 228.72395 79.711046 229.99219 80.652344 C 231.8925 82.062792 232.89873 86.344485 231.53711 87.224609 C 231.22593 87.425751 229.07933 87.562237 226.76562 87.529297 C 223.31009 87.480042 222.50123 87.624578 222.24023 88.335938 C 217.71821 100.66067 228.3402 103.76356 235.67188 92.259766 L 238.39648 87.982422 L 240.31055 87.982422 C 241.36307 87.982422 243.03595 87.577455 244.0293 87.082031 L 245.83594 86.181641 L 247.98242 88.607422 C 250.12563 91.030054 255.07113 95.417969 255.6582 95.417969 C 257.15691 95.417969 255.69398 91.892171 253.17578 89.435547 C 248.37341 84.750633 249.58394 83.31493 255.02734 87.240234 C 258.01423 89.394109 258.59747 90.10782 259.9375 93.242188 C 261.76999 97.528431 262.58643 98.384557 264.05859 97.560547 C 265.26648 96.884447 265.35219 96.345974 264.48438 94.892578 C 263.96085 94.015886 264.02126 93.723878 264.86523 93.046875 C 266.19882 91.977143 267.84594 92.239435 268.07227 93.558594 C 268.87974 98.265048 271.26832 99.852108 277.37109 99.736328 L 281.86328 99.652344 L 281.86328 101.60352 C 281.86328 102.67709 281.49356 104.77845 281.04297 106.27344 L 280.22461 108.99219 L 275.07812 108.7793 C 270.92554 108.60818 269.22273 108.27437 266.26367 107.04883 C 262.11134 105.32907 261.22228 105.44997 260.625 107.82031 C 260.06021 110.06187 259.01347 109.9519 252.66797 106.97852 L 247.58984 104.59961 L 247.71289 102.56641 C 247.97761 98.172761 245.35909 97.773071 234.2207 100.50391 C 231.33594 101.21117 228.40623 101.79102 227.71094 101.79102 C 224.89386 101.79102 220.02608 106.73995 219.11719 110.52734 C 218.93371 111.29197 218.15002 112.25962 217.37695 112.67773 C 215.31447 113.79321 212.2758 117.65761 210.42969 121.51172 L 208.81055 124.89062 L 209.39258 127.14648 C 209.8453 128.90547 209.82332 130.0769 209.29297 132.45703 C 208.91874 134.13651 208.50509 136.52319 208.375 137.75977 L 208.13867 140.00781 L 210.27344 142.00781 C 211.44725 143.10775 212.7545 144.91318 213.17969 146.02148 C 213.66236 147.27965 215.20109 149.14367 217.27344 150.98242 L 220.5918 153.92773 L 222.41211 153.57812 C 223.4137 153.38631 225.71802 153.16609 227.5332 153.08789 C 229.56496 153.00045 231.7784 152.50307 233.28906 151.79492 C 236.82752 150.13619 238.385 150.27767 239.93164 152.39844 C 241.03843 153.91609 241.4541 154.12377 243.01172 153.93359 C 246.28546 153.53386 246.86329 154.99758 245.7207 160.7832 C 245.1954 163.44309 245.22947 163.96868 245.99219 165.0625 C 246.47052 165.74848 247.43146 167.13014 248.12695 168.13281 C 251.47249 172.95604 252.4984 180.212 250.58398 185.49805 C 249.00114 189.86863 249.09568 194.27904 250.82422 196.70312 C 251.40068 197.51154 253.28686 202.71246 255.01367 208.26172 C 256.74049 213.81102 258.48776 218.88971 258.89648 219.54688 L 258.89453 219.54688 C 259.73261 220.89435 260.28671 220.96344 264.14844 220.20312 C 270.37415 218.97741 279.4376 210.50437 278.53711 206.75195 C 278.30279 205.77545 278.62382 205.21558 280.08398 204.05078 C 282.85804 201.83784 283.18043 200.21375 281.63281 196.24805 C 281.38316 195.60833 282.39902 194.4862 285.58203 191.88672 C 290.96617 187.48963 291.45354 185.17212 289.18555 174.76758 C 288.01292 169.38806 289.55634 166.0097 296.22266 159.36719 C 300.99865 154.60825 303.1989 151.0639 304.50195 146.0293 C 305.60092 141.78311 305.55513 141.74737 300.34961 142.87891 C 295.4747 143.9386 295.15342 143.82984 293.53516 140.58984 C 293.01483 139.54807 291.60307 137.45068 290.39844 135.92773 C 288.0473 132.95531 287.04756 131.05444 282.64453 121.20312 C 280.23341 115.80848 279.91521 114.7508 280.51172 114.12695 C 281.56735 113.02289 286.71863 120.74333 287.66016 124.83984 C 287.85513 125.68821 289.10858 127.6674 290.44727 129.23828 C 292.73291 131.92033 294.04883 134.82464 294.04883 137.19531 C 294.04883 137.76274 294.33619 138.63813 294.6875 139.14062 L 295.32617 140.05469 L 298.11328 139.05078 C 306.67203 135.97093 316.38867 127.73023 316.38867 123.55078 C 316.38867 121.53396 310.38999 118.18285 309.28125 119.58008 C 308.28799 120.83176 305.0724 120.59483 303.87305 119.18164 C 298.28183 112.59351 298.53789 107.963 304.20117 113.24805 L 307.38672 116.21875 L 309.14648 115.87305 C 310.54579 115.59849 311.28854 115.80348 312.75977 116.86719 C 314.34441 118.01288 315.39861 118.25844 320.06836 118.57227 L 325.52539 118.93945 L 328.0332 120.85156 C 329.41236 121.90385 330.6803 123.33126 330.85156 124.02344 C 331.1302 125.14982 331.3673 125.24869 333.09961 124.95898 L 335.03516 124.63477 L 335.31641 127.49219 C 335.47151 129.06397 336.21287 131.86956 336.96484 133.72656 C 337.71681 135.58355 339.07728 139.0928 339.98633 141.52539 C 342.27088 147.63872 342.7192 148.02532 344.74414 145.61328 C 345.90557 144.22979 346.35295 143.16071 346.37305 141.73047 C 346.46624 135.09873 346.14004 135.83137 352.21875 128.63477 C 358.0991 121.67302 366.14844 124.25493 366.14844 133.10352 C 366.14844 134.97011 366.12064 134.962 368.50977 133.91797 C 369.51232 133.47988 370.38848 133.12109 370.45508 133.12109 C 370.92527 133.12109 372.75813 140.91932 372.92383 143.625 C 373.11756 146.78857 376.55413 155.24058 378.51758 157.38086 C 379.33717 158.27427 381.88672 158.86085 381.88672 158.15625 C 381.88672 156.43364 379.61631 151.67244 378.03711 150.08594 C 374.55372 146.58639 373.52436 143.07586 375.06836 139.95312 L 375.86523 138.33984 L 379.54688 142.47461 L 383.22852 146.60938 L 385.22461 144.31641 C 389.40871 139.5068 389.35913 137.86705 384.89062 133.03125 C 381.52864 129.39289 381.26582 128.28146 383.25195 126.11328 C 384.74319 124.48536 385.47866 124.30765 386.89453 125.23242 C 387.85017 125.85661 393.76945 123.91838 396.47266 122.0957 C 401.37833 118.78797 401.64337 110.84213 397.05078 104.77344 C 394.83421 101.84446 394.64543 100.78046 396.10352 99.400391 C 397.60831 97.976107 397.36347 97.634328 394.86719 97.673828 C 390.57273 97.741728 389.06619 95.830533 391.84961 93.847656 L 393.67969 92.542969 L 394.30859 93.443359 C 394.74394 94.066026 395.53676 94.302114 396.88672 94.214844 C 398.49935 94.11058 398.94456 94.310001 399.46094 95.367188 C 399.8043 96.070154 400.78059 96.952272 401.63086 97.326172 C 402.64714 97.773092 403.29496 98.518026 403.51953 99.5 C 404.1549 102.27868 405.57721 103.02297 407.83398 101.75977 L 408.83594 101.20117 L 405.94727 97.759766 L 403.05859 94.320312 L 403.67383 91.447266 L 404.28906 88.574219 L 406.16211 88.412109 L 408.03711 88.248047 L 409.45898 85.328125 C 412.24536 79.605919 407.67581 69.645645 402.71875 70.636719 C 400.93126 70.994091 397.44719 69.052543 397.80469 67.898438 C 397.95665 67.407892 398.46261 65.871692 398.92969 64.484375 L 399.7793 61.962891 L 402.63867 61.841797 C 404.2113 61.77557 406.6408 61.681582 408.03711 61.632812 C 409.43339 61.584048 410.97419 61.519331 411.46289 61.488281 C 411.96176 61.456591 412.35156 61.01001 412.35156 60.470703 C 412.35156 59.942392 412.65981 59.070087 413.03516 58.533203 L 413.7168 57.558594 L 416.03711 58.384766 L 418.35742 59.210938 L 418.68555 57.849609 L 419.01172 56.486328 L 419.85156 57.363281 L 420.68945 58.240234 L 419.79688 61.748047 L 418.90234 65.253906 L 419.77539 66.646484 C 421.08228 68.732542 427.7748 75.255499 428.16211 74.820312 C 428.34746 74.612164 428.34099 72.70965 428.14844 70.591797 L 427.79883 66.740234 L 425.40625 64.201172 C 422.46745 61.080641 422.46713 61.103916 425.42578 60.650391 C 428.55564 60.170624 431.59542 58.736351 433.0957 57.029297 L 434.29102 55.667969 L 432.22461 54.564453 C 427.97552 52.297301 430.30908 51.258209 435.96484 52.898438 C 438.6178 53.667822 439.59724 53.767373 439.88867 53.296875 C 440.85576 51.735719 439.99573 51.125388 435.96094 50.511719 C 433.72803 50.1721 428.17679 48.999792 423.625 47.908203 C 416.69697 46.246759 415.11881 46.024244 413.93945 46.535156 C 412.48202 47.166534 408.83071 46.716815 386.25781 43.128906 L 377.67969 41.765625 L 376.92578 42.888672 C 376.33776 43.766732 375.84003 43.942605 374.64844 43.693359 C 373.80959 43.517891 372.27713 43.640547 371.24219 43.964844 C 369.54835 44.495608 369.03202 44.388458 366.07031 42.894531 C 362.53834 41.112945 362.3126 41.086336 350.91602 41.128906 C 347.4253 41.141936 344.24159 41.134721 343.8418 41.113281 C 343.41753 41.090499 343.81867 40.460539 344.80469 39.599609 L 346.49414 38.125 L 345.27734 37.816406 C 344.60835 37.646536 341.77695 37.043597 338.98438 36.476562 L 333.90625 35.445312 z M 760.11719 35.445312 L 758.82422 36.425781 C 757.90837 37.120516 756.37043 37.468781 753.56055 37.617188 C 749.96536 37.80706 749.48752 37.962784 748.48828 39.273438 C 747.56782 40.480742 746.98864 40.720703 744.99219 40.720703 C 742.25264 40.720703 742.01587 41.1402 743.99609 42.484375 L 745.39258 43.433594 L 744.12305 43.097656 C 743.4249 42.912903 742.42022 42.632677 741.89062 42.476562 C 741.10361 42.244563 740.98078 42.405626 741.21875 43.357422 C 741.4415 44.248294 741.3287 44.449844 740.73828 44.212891 C 740.31383 44.042544 739.39114 43.751106 738.6875 43.566406 L 737.4082 43.230469 L 738.26758 44.603516 C 738.74058 45.358494 740.14552 46.382376 741.38867 46.878906 C 742.63179 47.375443 743.78306 48.009225 743.94727 48.287109 C 744.11147 48.564992 743.74114 48.510883 743.125 48.166016 C 742.50887 47.821148 741.96767 47.618174 741.92188 47.714844 C 740.24611 51.244757 739.09081 52.133717 737.85742 50.84375 C 737.43328 50.40014 737.57924 50.165464 738.41992 49.935547 C 739.8565 49.542638 739.93604 49.852585 737.30078 45.552734 C 734.8556 41.56301 733.22806 40.477482 732.10352 42.085938 C 731.14299 43.459795 731.26554 44.608884 732.55859 46.328125 L 733.68945 47.830078 L 732.68555 47.392578 C 730.56406 46.466975 726.55618 46.42454 724.91797 47.310547 C 723.78829 47.921528 722.19633 48.145206 719.49609 48.072266 C 716.2706 47.98518 715.43819 48.150361 714.17773 49.125 C 712.29438 50.58171 711.435 50.581277 710.51172 49.126953 C 709.59976 47.690458 708.32063 48.246713 709.08789 49.746094 C 709.83546 51.207038 709.74848 51.341797 708.0625 51.341797 C 706.922 51.341797 706.38178 51.680699 705.95508 52.660156 C 705.5148 53.670626 705.11396 53.906675 704.23438 53.675781 C 703.42053 53.462148 703.03653 53.632525 702.91406 54.259766 C 702.77492 54.972376 702.34858 54.778073 700.71094 53.263672 L 698.67969 51.386719 L 701.79102 51.363281 C 709.98886 51.30503 705.3472 47.98368 693.8457 45.677734 C 686.10518 44.125826 681.68394 45.604117 676.08594 51.619141 C 674.27077 53.56954 671.81381 55.611906 670.62695 56.15625 L 668.46875 57.146484 L 668.46875 59.835938 C 668.46875 62.993839 669.1144 63.489963 672.12891 62.648438 C 674.51843 61.981381 675.28568 62.572126 676.0918 65.703125 C 676.3892 66.858252 676.86412 67.804688 677.14648 67.804688 C 680.01171 67.804688 683.46089 62.169011 681.9082 60.025391 C 680.75583 58.434439 681.0479 57.272649 682.91992 55.994141 C 683.88606 55.334309 684.94247 54.277081 685.26758 53.644531 C 685.94917 52.3184 687.42486 51.777335 688.85352 52.330078 C 689.75019 52.676984 689.64852 52.898698 687.78906 54.644531 C 683.95357 58.245663 685.66506 61.233137 691.24414 60.675781 C 694.92945 60.307615 694.67661 61.03876 690.89258 61.691406 C 688.60487 62.085974 688.54791 62.223417 689.57617 64.853516 L 689.97852 65.884766 L 688.1875 64.728516 C 686.09784 63.377766 685.72937 63.570319 686.03711 65.859375 C 686.46629 69.051761 680.02021 71.208652 674.43359 69.742188 L 673.16211 69.410156 L 673.42188 67.013672 C 673.71319 64.310491 673.03402 63.851602 671.75781 65.888672 C 671.2719 66.664061 671.08548 67.671213 671.27734 68.470703 C 671.56135 69.654135 671.20662 70.020979 667.63477 72.244141 C 663.32593 74.926023 661.59683 75.37839 662.10938 73.689453 C 662.27919 73.129901 662.17106 72.513526 661.86914 72.318359 C 661.10181 71.822374 659.04805 68.336607 658.58398 66.742188 C 658.16739 65.310888 656.37947 63.025391 655.67578 63.025391 C 654.35054 63.025391 654.24815 65.881166 655.50586 67.779297 C 656.97461 69.995915 657.14175 71.617834 656.00391 72.605469 C 655.57091 72.981315 655.28514 73.889897 655.36914 74.625 L 655.52148 75.962891 L 659.00195 75.828125 C 661.56678 75.728716 662.38545 75.855824 662.11328 76.316406 C 661.60409 77.178057 657.80231 78.929119 656.41016 78.943359 C 655.02582 78.957491 654.93489 79.711046 656.20312 80.652344 C 658.10343 82.062792 659.10967 86.344485 657.74805 87.224609 C 657.43687 87.425751 655.29026 87.562237 652.97656 87.529297 C 649.52102 87.480042 648.71217 87.624578 648.45117 88.335938 C 643.92915 100.66067 654.55114 103.76356 661.88281 92.259766 L 664.60742 87.982422 L 666.52148 87.982422 C 667.574 87.982422 669.24884 87.577455 670.24219 87.082031 L 672.04688 86.181641 L 674.19336 88.607422 C 676.33657 91.030054 681.28207 95.417969 681.86914 95.417969 C 683.36785 95.417969 681.90492 91.892171 679.38672 89.435547 C 674.58435 84.750633 675.79488 83.31493 681.23828 87.240234 C 684.22517 89.394109 684.80841 90.10782 686.14844 93.242188 C 687.98093 97.52843 688.79737 98.384557 690.26953 97.560547 C 691.47742 96.884447 691.56313 96.345974 690.69531 94.892578 C 690.17179 94.015886 690.2322 93.723878 691.07617 93.046875 C 692.40976 91.977143 694.05687 92.239435 694.2832 93.558594 C 695.09067 98.265048 697.47926 99.852108 703.58203 99.736328 L 708.07422 99.652344 L 708.07422 101.60352 C 708.07422 102.67709 707.7045 104.77845 707.25391 106.27344 L 706.43555 108.99219 L 701.28906 108.7793 C 697.13647 108.60818 695.43367 108.27437 692.47461 107.04883 C 688.32228 105.32907 687.43322 105.44997 686.83594 107.82031 C 686.27115 110.06187 685.22441 109.9519 678.87891 106.97852 L 673.80078 104.59961 L 673.92383 102.56641 C 674.18855 98.172757 671.57003 97.773067 660.43164 100.50391 C 657.54688 101.21117 654.61912 101.79102 653.92383 101.79102 C 651.10675 101.79102 646.23702 106.73995 645.32812 110.52734 C 645.14465 111.29197 644.36291 112.25962 643.58984 112.67773 C 641.52736 113.79321 638.48673 117.65761 636.64062 121.51172 L 635.02148 124.89062 L 635.60352 127.14648 C 636.05624 128.90547 636.03426 130.0769 635.50391 132.45703 C 635.12968 134.13651 634.71603 136.52319 634.58594 137.75977 L 634.34961 140.00781 L 636.48438 142.00781 C 637.65819 143.10775 638.96544 144.91318 639.39062 146.02148 C 639.87329 147.27965 641.41201 149.14367 643.48438 150.98242 L 646.80273 153.92773 L 648.62305 153.57812 C 649.62464 153.38631 651.93091 153.16609 653.74609 153.08789 C 655.77785 153.00045 657.98934 152.50307 659.5 151.79492 C 663.03846 150.13619 664.59594 150.27767 666.14258 152.39844 C 667.24937 153.91609 667.66504 154.12377 669.22266 153.93359 C 672.4964 153.53386 673.07423 154.99758 671.93164 160.7832 C 671.40634 163.44309 671.44042 163.96868 672.20312 165.0625 C 672.68146 165.74848 673.6424 167.13014 674.33789 168.13281 C 677.68343 172.95604 678.70934 180.212 676.79492 185.49805 C 675.21208 189.86863 675.30662 194.27905 677.03516 196.70312 C 677.61162 197.51154 679.4978 202.71246 681.22461 208.26172 C 682.95143 213.81102 684.6987 218.88971 685.10742 219.54688 L 685.10547 219.54688 C 685.94355 220.89435 686.49764 220.96344 690.35938 220.20312 C 696.58507 218.97741 705.64854 210.50437 704.74805 206.75195 C 704.51373 205.77545 704.83476 205.21558 706.29492 204.05078 C 709.06898 201.83784 709.39137 200.21375 707.84375 196.24805 C 707.5941 195.60833 708.60996 194.4862 711.79297 191.88672 C 717.17711 187.48963 717.66447 185.17212 715.39648 174.76758 C 714.22385 169.38806 715.76727 166.0097 722.43359 159.36719 C 727.20958 154.60825 729.40984 151.0639 730.71289 146.0293 C 731.81186 141.78311 731.76607 141.74737 726.56055 142.87891 C 721.68564 143.9386 721.36435 143.82984 719.74609 140.58984 C 719.22576 139.54807 717.81596 137.45068 716.61133 135.92773 C 714.26019 132.95531 713.2585 131.05444 708.85547 121.20312 C 706.44435 115.80849 706.12615 114.7508 706.72266 114.12695 C 707.77829 113.02289 712.92956 120.74333 713.87109 124.83984 C 714.06606 125.68821 715.31951 127.6674 716.6582 129.23828 C 718.94384 131.92033 720.25977 134.82464 720.25977 137.19531 C 720.25977 137.76274 720.54713 138.63813 720.89844 139.14062 L 721.53711 140.05469 L 724.32617 139.05078 C 732.88492 135.97093 742.59961 127.73023 742.59961 123.55078 C 742.59961 121.53396 736.60093 118.18285 735.49219 119.58008 C 734.49893 120.83176 731.28333 120.59483 730.08398 119.18164 C 724.49276 112.59351 724.74883 107.963 730.41211 113.24805 L 733.59766 116.21875 L 735.35742 115.87305 C 736.75673 115.59849 737.49947 115.80348 738.9707 116.86719 C 740.55534 118.01288 741.60955 118.25844 746.2793 118.57227 L 751.73633 118.93945 L 754.24414 120.85156 C 755.6233 121.90385 756.89124 123.33126 757.0625 124.02344 C 757.34114 125.14982 757.57824 125.24869 759.31055 124.95898 L 761.24609 124.63477 L 761.52734 127.49219 C 761.68244 129.06397 762.42381 131.86956 763.17578 133.72656 C 763.92775 135.58355 765.28822 139.0928 766.19727 141.52539 C 768.48182 147.63872 768.93014 148.02532 770.95508 145.61328 C 772.11651 144.22979 772.56388 143.16071 772.58398 141.73047 C 772.67717 135.09873 772.35098 135.83137 778.42969 128.63477 C 784.31004 121.67302 792.35938 124.25493 792.35938 133.10352 C 792.35937 134.97011 792.33353 134.962 794.72266 133.91797 C 795.72521 133.47988 796.59942 133.12109 796.66602 133.12109 C 797.13621 133.12109 798.96907 140.91932 799.13477 143.625 C 799.3285 146.78857 802.76507 155.24058 804.72852 157.38086 C 805.54811 158.27427 808.09766 158.86085 808.09766 158.15625 C 808.09766 156.43364 805.82725 151.67244 804.24805 150.08594 C 800.76466 146.58639 799.7353 143.07586 801.2793 139.95312 L 802.07617 138.33984 L 805.75781 142.47461 L 809.43945 146.60938 L 811.43555 144.31641 C 815.61965 139.5068 815.57006 137.86705 811.10156 133.03125 C 807.73957 129.39289 807.47676 128.28146 809.46289 126.11328 C 810.95413 124.48536 811.6896 124.30765 813.10547 125.23242 C 814.06111 125.85661 819.98038 123.91838 822.68359 122.0957 C 827.58926 118.78797 827.85431 110.84213 823.26172 104.77344 C 821.04515 101.84446 820.85636 100.78046 822.31445 99.400391 C 823.81924 97.976107 823.5744 97.634328 821.07812 97.673828 C 816.78367 97.741728 815.27713 95.830533 818.06055 93.847656 L 819.89062 92.542969 L 820.51953 93.443359 C 820.95488 94.066026 821.7477 94.302114 823.09766 94.214844 C 824.71029 94.11058 825.15548 94.310001 825.67188 95.367188 C 826.01522 96.070154 826.99153 96.952272 827.8418 97.326172 C 828.85808 97.773092 829.5059 98.518026 829.73047 99.5 C 830.36584 102.27868 831.78815 103.02297 834.04492 101.75977 L 835.04688 101.20117 L 832.1582 97.759766 L 829.26953 94.320312 L 829.88477 91.447266 L 830.5 88.574219 L 832.37305 88.412109 L 834.24805 88.248047 L 835.66992 85.328125 C 838.4563 79.605919 833.88675 69.645645 828.92969 70.636719 C 827.1422 70.994091 823.65814 69.052543 824.01562 67.898438 C 824.1676 67.407892 824.67354 65.871692 825.14062 64.484375 L 825.99023 61.962891 L 828.84961 61.841797 C 830.42224 61.77557 832.85174 61.681583 834.24805 61.632812 C 835.64433 61.584049 837.18513 61.519331 837.67383 61.488281 C 838.1727 61.456591 838.5625 61.01001 838.5625 60.470703 C 838.5625 59.942392 838.87074 59.070087 839.24609 58.533203 L 839.92773 57.558594 L 842.24805 58.384766 L 844.56836 59.210938 L 844.89648 57.849609 L 845.22266 56.486328 L 846.0625 57.363281 L 846.90039 58.240234 L 846.00781 61.748047 L 845.11328 65.253906 L 845.98633 66.646484 C 847.29322 68.732542 853.98574 75.2555 854.37305 74.820312 C 854.5584 74.612165 854.55191 72.70965 854.35938 70.591797 L 854.00977 66.740234 L 851.61719 64.201172 C 848.67839 61.080641 848.67807 61.103916 851.63672 60.650391 C 854.76658 60.170624 857.80636 58.736351 859.30664 57.029297 L 860.50195 55.667969 L 858.43555 54.564453 C 854.18646 52.297301 856.52002 51.258209 862.17578 52.898438 C 864.82874 53.667822 865.80818 53.767373 866.09961 53.296875 C 867.0667 51.735719 866.20667 51.125388 862.17188 50.511719 C 859.93895 50.1721 854.38773 48.999792 849.83594 47.908203 C 842.90791 46.246759 841.32975 46.024244 840.15039 46.535156 C 838.69296 47.166534 835.04165 46.716815 812.46875 43.128906 L 803.89062 41.765625 L 803.13672 42.888672 C 802.5487 43.766732 802.05096 43.942605 800.85938 43.693359 C 800.02053 43.517891 798.48808 43.640547 797.45312 43.964844 C 795.75928 44.495608 795.24296 44.388458 792.28125 42.894531 C 788.74928 41.112945 788.52353 41.086336 777.12695 41.128906 C 773.63623 41.141936 770.45252 41.134721 770.05273 41.113281 C 769.62846 41.090499 770.02961 40.460539 771.01562 39.599609 L 772.70508 38.125 L 771.48828 37.816406 C 770.81929 37.646536 767.98789 37.043597 765.19531 36.476562 L 760.11719 35.445312 z M 126.07617 36.0625 C 124.51033 36.09983 124.14878 37.01794 126.36719 38.322266 C 127.8152 39.173615 134.65288 39.267873 135.4375 38.447266 C 136.24211 37.605803 134.79453 36.941713 133.5 37.558594 C 132.45615 38.056025 131.81201 37.965373 129.89648 37.052734 C 128.38786 36.333952 127.01568 36.040102 126.07617 36.0625 z M 552.28711 36.0625 C 550.72126 36.09983 550.35972 37.01794 552.57812 38.322266 C 554.02615 39.173615 560.86382 39.267873 561.64844 38.447266 C 562.45305 37.605803 561.00547 36.941713 559.71094 37.558594 C 558.66709 38.056025 558.02295 37.965373 556.10742 37.052734 C 554.5988 36.333952 553.22662 36.040102 552.28711 36.0625 z M 372.27148 37.535156 C 370.6124 37.535156 369.11204 37.774345 368.93945 38.066406 C 368.74243 38.399815 369.86614 38.597656 371.95703 38.597656 C 373.83872 38.597656 375.28711 38.36645 375.28711 38.066406 C 375.28711 37.771982 373.94397 37.535156 372.27148 37.535156 z M 798.48242 37.535156 C 796.82334 37.535156 795.32298 37.774345 795.15039 38.066406 C 794.95337 38.399815 796.07708 38.597656 798.16797 38.597656 C 800.04966 38.597656 801.49805 38.36645 801.49805 38.066406 C 801.49805 37.771982 800.15491 37.535156 798.48242 37.535156 z M 295.25781 38.066406 C 291.65152 38.066406 288.02718 43.263745 290.875 44.351562 C 292.94925 45.143893 292.99177 45.118558 292.69336 43.195312 L 292.41797 41.419922 L 294.75586 39.986328 C 297.57429 38.258854 297.6249 38.066406 295.25781 38.066406 z M 721.46875 38.066406 C 717.86246 38.066406 714.23812 43.263745 717.08594 44.351562 C 719.16019 45.143893 719.20271 45.118558 718.9043 43.195312 L 718.62891 41.419922 L 720.9668 39.986328 C 723.78523 38.258854 723.83584 38.066406 721.46875 38.066406 z M 119.93555 39.662109 C 116.80426 39.666086 114.08748 40.512138 112.43359 42 L 111.06641 43.230469 L 112.17188 43.849609 C 113.07556 44.35544 113.65319 44.267902 115.33398 43.371094 C 117.55913 42.183838 118.36914 42.333714 118.36914 43.929688 C 118.36914 44.580121 117.90118 45.073012 117.07812 45.289062 C 115.52752 45.696089 115.68921 46.658589 117.39258 47.166016 C 118.91774 47.620359 130.1452 47.110293 130.72266 46.560547 C 130.95414 46.340166 131.26947 45.176295 131.42383 43.972656 L 131.70508 41.783203 L 126.43359 41.767578 C 121.96404 41.753256 121.29624 41.643819 122.04297 41.050781 C 123.27421 40.072938 122.64645 39.658309 119.93555 39.662109 z M 546.14648 39.662109 C 543.01519 39.666086 540.29842 40.512138 538.64453 42 L 537.27734 43.230469 L 538.38281 43.849609 C 539.2865 44.35544 539.86413 44.267902 541.54492 43.371094 C 543.77007 42.183838 544.58008 42.333714 544.58008 43.929688 C 544.58008 44.58012 544.11212 45.073012 543.28906 45.289062 C 541.73846 45.696089 541.90015 46.658589 543.60352 47.166016 C 545.12868 47.620359 556.35613 47.110293 556.93359 46.560547 C 557.16507 46.340166 557.48041 45.176295 557.63477 43.972656 L 557.91602 41.783203 L 552.64453 41.767578 C 548.17498 41.753256 547.50718 41.643819 548.25391 41.050781 C 549.48515 40.072938 548.85738 39.658309 546.14648 39.662109 z M 145.67188 40.193359 C 145.04333 40.190632 144.03023 40.531479 143.16797 41.123047 C 140.38423 43.03285 137.68423 45.248038 137.67383 45.632812 C 137.63512 47.055151 146.18618 42.037549 146.27148 40.587891 C 146.28729 40.319205 146.049 40.194996 145.67188 40.193359 z M 571.88281 40.193359 C 571.25427 40.190632 570.24117 40.531479 569.37891 41.123047 C 566.59517 43.03285 563.89517 45.248038 563.88477 45.632812 C 563.84606 47.055152 572.39712 42.037549 572.48242 40.587891 C 572.49822 40.319205 572.25994 40.194996 571.88281 40.193359 z M 140.3125 40.384766 C 139.74414 40.382504 138.5405 40.799967 136.64844 41.617188 L 134.87109 42.384766 L 135.85742 43.146484 C 137.26873 44.237521 138.05194 44.096419 139.46484 42.501953 C 140.72329 41.081789 141.04325 40.387674 140.3125 40.384766 z M 566.52344 40.384766 C 565.95507 40.382504 564.75144 40.799967 562.85938 41.617188 L 561.08203 42.384766 L 562.06836 43.146484 C 563.47967 44.237521 564.26288 44.096419 565.67578 42.501953 C 566.93422 41.081789 567.25419 40.387674 566.52344 40.384766 z M 154.99023 40.833984 C 153.92338 40.760139 152.5008 41.434127 151.50195 42.712891 L 150.36328 44.173828 L 150.35938 42.712891 C 150.35643 41.009814 150.0062 40.937451 147.58203 42.146484 C 145.39287 43.238307 145.34771 43.694354 147.30859 44.861328 C 149.30601 46.050061 149.27187 46.144538 146.24219 47.869141 L 143.65039 49.345703 L 143.99219 48.21875 L 144.33203 47.09375 L 141.37109 47.09375 C 139.34622 47.09375 137.79052 47.441486 136.44922 48.193359 C 134.7639 49.138065 133.9421 49.246636 130.61719 48.962891 C 125.78597 48.550582 123.4946 48.556456 119.66992 48.988281 C 117.24888 49.261634 116.53964 49.16348 116.07031 48.492188 C 114.71189 46.549244 110.0673 45.968804 101.10547 46.623047 L 92.728516 47.234375 L 87.142578 46.117188 C 77.192856 44.126123 76.64054 44.124668 68.818359 46.058594 C 60.502923 48.114461 61.361181 47.698304 61.970703 49.375 L 62.466797 50.742188 L 59.572266 51.113281 C 54.302602 51.78977 52.515947 53.466797 57.064453 53.466797 C 60.006701 53.466797 59.027596 54.249765 53.894531 56.003906 C 50.635771 57.117536 49.39044 57.83119 48.455078 59.117188 L 47.240234 60.785156 L 49.042969 61.951172 C 51.218631 63.357477 51.071331 63.691113 47.478516 65.46875 C 40.988228 68.67998 47.014451 66.963175 61.808594 61.388672 L 67.695312 59.171875 L 70.726562 60.130859 C 74.67132 61.380018 75.922792 62.940587 75.476562 66.052734 L 75.154297 68.300781 L 76.453125 68.640625 C 77.946973 69.032755 77.957694 69.129126 76.994141 73.349609 C 76.597909 75.085171 76.396848 77.475043 76.548828 78.660156 L 76.826172 80.814453 L 73.226562 86.523438 L 69.626953 92.230469 L 69.626953 97.041016 L 69.626953 101.84961 L 71.162109 103.31641 C 72.323619 104.42596 72.806087 105.48444 73.146484 107.67188 C 73.985483 113.06338 77.729511 122.69819 78.623047 121.76367 C 78.774807 121.60495 78.151975 118.97932 77.238281 115.92773 C 75.077383 108.71077 76.174999 105.15427 78.474609 111.92188 C 79.012746 113.50556 80.574303 116.59268 81.945312 118.7832 L 84.439453 122.76562 L 84.125 125.27148 C 83.726459 128.46048 84.299676 129.09649 90.507812 132.35742 C 94.375378 134.3889 95.461883 134.74345 96.931641 134.45508 C 98.43773 134.15957 98.934479 134.3423 100.2832 135.67578 C 101.15437 136.53711 103.03142 137.63579 104.45312 138.11719 C 105.87484 138.5986 107.47471 139.41575 108.00781 139.93359 C 108.54091 140.45139 109.39965 141.04298 109.91797 141.25 C 110.60606 141.52483 110.78119 141.9637 110.5625 142.875 C 110.2206 144.29974 110.82902 144.97261 114.36523 147.08203 C 116.44736 148.32404 116.81164 148.39564 117.66406 147.7207 C 121.64225 144.57079 122.88176 153.00769 119.27148 158.66211 C 117.07344 162.10467 116.91335 162.87583 116.72266 170.8418 C 116.70495 171.5815 117.49061 173.49301 118.4707 175.08984 C 119.4508 176.68667 121.24371 179.84783 122.45312 182.11523 C 124.99446 186.8797 125.45497 187.38262 129.10547 189.35547 C 133.33986 191.64386 133.39585 191.84532 134.34766 208.26172 C 135.35642 225.66046 136.16994 231.4104 137.92969 233.59766 C 139.28987 235.28829 139.52528 237.14379 138.60742 238.9375 C 138.11997 239.89008 138.196 240.18789 139.08984 240.80859 C 139.97855 241.42574 140.05586 241.71207 139.55273 242.55469 C 138.45142 244.39905 142.967 251.04586 146.73633 253.12891 C 148.4894 254.09771 153.91211 254.64265 153.91211 253.84961 C 153.91211 253.65879 152.76934 252.23941 151.37305 250.69531 C 148.75423 247.79929 148.27643 246.31309 149.5957 245.16797 C 150.77736 244.14229 150.52255 242.11985 149.08789 241.13672 C 147.51557 240.05926 147.51312 239.10767 149.07031 236.45703 L 150.28906 234.38086 L 148.99414 232.60547 L 147.69922 230.83008 L 149.5957 230.83008 L 151.49219 230.83008 L 151.24805 229.50195 C 151.03609 228.34223 151.25426 228.09668 152.95898 227.5625 C 156.55932 226.43433 157.01197 224.96536 155.14648 220.47266 C 155.00962 220.14305 155.80672 220.00919 157.22266 220.12695 C 160.02024 220.35967 160.62433 219.88457 162.25977 216.14844 C 162.95666 214.55642 164.01429 212.53514 164.61133 211.6582 C 165.49392 210.36187 165.6353 209.62759 165.36328 207.73047 L 165.02734 205.39844 L 167.05859 203.27344 C 168.20158 202.07804 169.935 200.91069 171.02148 200.60352 C 175.15793 199.43406 176.40664 196.97991 177.23438 188.39258 C 177.58928 184.71056 177.9431 183.63971 179.99414 180.03516 C 182.95493 174.83182 183.07603 169.76172 180.24023 169.76172 C 180.00667 169.76172 178.76874 168.92655 177.48828 167.9043 C 175.654 166.43996 174.69253 166.04492 172.95703 166.04492 C 171.38351 166.04492 169.68967 165.46033 167.0293 163.99805 C 164.98094 162.87215 162.65455 161.78708 161.85938 161.58594 C 160.63165 161.27541 160.46164 161.02384 160.72656 159.91992 C 161.35929 157.28329 158.22924 152.51932 155.48242 151.9375 C 151.43155 151.07948 150.11225 150.37051 146.61523 147.16797 L 142.85938 143.72852 L 139.37305 143.53906 C 137.45567 143.43495 134.80109 143.1653 133.47461 142.94141 L 131.06445 142.53516 L 131.06445 143.63867 C 131.06445 144.24527 130.8359 144.88785 130.55664 145.06836 C 130.27477 145.25056 130.04502 144.8526 130.04102 144.17188 C 130.01948 140.77617 127.60975 140.91923 124.38086 144.50781 L 122.28125 146.8418 L 120.95703 145.82031 C 119.80832 144.93206 119.42041 144.88185 117.99805 145.44336 C 116.55523 146.01294 116.19304 145.95838 114.95312 144.97656 L 113.54688 143.86133 L 113.69336 139.76562 C 113.87477 134.70935 113.52342 134.18359 109.95898 134.18359 L 107.25586 134.18359 L 108.45117 131.39453 C 110.27276 127.14485 110.51994 125.31749 109.32812 124.92188 C 107.67357 124.37266 105.75817 125.51419 104.95312 127.5293 C 103.64344 130.80759 99.207494 131.36243 97.066406 128.51562 C 95.532328 126.4759 95.896497 119.82268 97.810547 114.91992 C 98.562783 112.99313 102.55112 111.14821 106.14258 111.06641 C 107.98018 111.02457 110.01658 110.76034 110.66797 110.47852 C 112.18473 109.82231 117.39489 110.85432 117.91211 111.91406 C 118.1166 112.33302 118.54796 114.05108 118.87109 115.73047 C 119.92729 121.21961 121.64635 119.65649 121.51758 113.32422 C 121.41277 108.16987 122.0773 106.66997 125.21094 104.98438 C 128.46137 103.23593 130.97177 100.19438 131.38281 97.505859 C 131.60482 96.053829 131.85284 95.566885 132.13281 96.039062 C 132.44395 96.563843 133.2088 96.026638 135.09766 93.957031 C 136.69443 92.207442 138.07083 91.167409 138.79492 91.162109 C 140.22102 91.152059 140.747 90.768532 141.86914 88.923828 C 143.26957 86.621639 148.32617 84.422266 148.32617 86.115234 C 148.32617 87.111178 148.31557 87.110342 152.56641 85.896484 C 157.70253 84.429829 158.3519 83.369731 154.44922 82.822266 C 152.59984 82.562833 152.40459 82.402301 152.71875 81.40625 C 153.81767 77.922211 152.01739 77.246895 147.73242 79.533203 C 145.10341 80.93594 145.67699 79.910568 148.48047 78.195312 C 149.91705 77.316378 152.01921 76.705827 154.92773 76.324219 C 159.92796 75.668165 164.31513 74.532581 165.36523 73.621094 C 166.95494 72.241238 165.91605 71.007779 163.13672 70.974609 L 161.78125 70.957031 L 162.79688 70.365234 C 164.32503 69.47256 164.32669 69.464758 163.16016 68.328125 C 162.29144 67.481647 162.08042 66.677074 162.10742 64.316406 C 162.15055 60.540025 162.02313 60.449506 159.04883 62.142578 L 156.56445 63.556641 L 155.36523 62.511719 C 154.7055 61.936935 154.39458 61.455576 154.67383 61.441406 C 158.1901 61.262743 155.08396 57.183594 151.43164 57.183594 L 149.14062 57.183594 L 146.79883 59.791016 C 144.77578 62.044656 144.48569 62.648114 144.66211 64.228516 C 144.88014 66.181808 144.21295 66.988091 140.71484 69.001953 C 139.82486 69.514313 138.84517 70.630806 138.53711 71.484375 C 137.32194 74.851409 134.84385 74.202678 135.63477 70.724609 C 136.00834 69.081797 135.53705 68.648826 131.31836 66.757812 L 126.74805 64.708984 L 126.5957 62.914062 C 126.40573 60.660589 129.01783 58.521716 135.59766 55.541016 C 138.38819 54.276891 139.90337 53.30164 139.82227 52.824219 C 139.73049 52.28401 140.77618 51.890821 143.63086 51.390625 C 149.0569 50.439875 150.33331 49.661144 150.34961 47.292969 C 150.35751 46.147362 151.92583 45.5 154.69727 45.5 C 155.78533 45.5 158.99133 47.818751 158.98633 48.601562 C 158.97893 49.706892 155.75112 52.404297 154.43555 52.404297 C 152.67447 52.404297 151.37305 52.879973 151.37305 53.523438 C 151.37305 53.78425 151.96519 53.998047 152.6875 53.998047 C 153.4098 53.998047 154.9506 54.708758 156.11328 55.578125 C 158.58733 57.428025 160.84102 57.923712 160.62891 56.572266 C 160.52259 55.894951 160.86836 55.715844 162.15234 55.777344 L 163.8125 55.855469 L 163.69531 53.806641 L 163.57617 51.757812 L 165.33008 52.103516 C 166.89127 52.409832 170.16016 51.352238 170.16016 50.541016 C 170.16016 50.407395 168.98249 49.673078 167.54297 48.910156 C 165.85918 48.017786 165.1455 47.381919 165.54297 47.125 C 165.95896 46.856122 165.19587 45.861153 163.20898 44.080078 C 159.25119 40.532296 159.19424 40.506546 157.9082 41.851562 L 156.78906 43.021484 L 156.35938 41.806641 C 156.14194 41.191896 155.63035 40.878292 154.99023 40.833984 z M 581.20117 40.833984 C 580.13432 40.760139 578.71173 41.434127 577.71289 42.712891 L 576.57422 44.173828 L 576.57031 42.712891 C 576.56736 41.009814 576.21714 40.937451 573.79297 42.146484 C 571.60381 43.238307 571.55865 43.694354 573.51953 44.861328 C 575.51695 46.050061 575.48281 46.144538 572.45312 47.869141 L 569.86133 49.345703 L 570.20312 48.21875 L 570.54297 47.09375 L 567.58203 47.09375 C 565.55716 47.09375 564.00146 47.441486 562.66016 48.193359 C 560.97484 49.138065 560.15305 49.246636 556.82812 48.962891 C 551.9969 48.550582 549.70554 48.556456 545.88086 48.988281 C 543.45982 49.261634 542.75253 49.16348 542.2832 48.492188 C 540.92478 46.549244 536.28019 45.968804 527.31836 46.623047 L 518.93945 47.234375 L 513.35352 46.117188 C 503.4038 44.126123 502.85148 44.124668 495.0293 46.058594 C 486.71386 48.114461 487.57211 47.698304 488.18164 49.375 L 488.67773 50.742188 L 485.78516 51.113281 C 480.5155 51.78977 478.72688 53.466797 483.27539 53.466797 C 486.21763 53.466797 485.23853 54.249765 480.10547 56.003906 C 476.84671 57.117536 475.60138 57.83119 474.66602 59.117188 L 473.45117 60.785156 L 475.25391 61.951172 C 477.42957 63.357477 477.28227 63.691113 473.68945 65.46875 C 467.19916 68.67998 473.22539 66.963175 488.01953 61.388672 L 493.90625 59.171875 L 496.9375 60.130859 C 500.88226 61.380018 502.13373 62.940587 501.6875 66.052734 L 501.36523 68.300781 L 502.66406 68.640625 C 504.15791 69.032755 504.16863 69.129126 503.20508 73.349609 C 502.80887 75.085171 502.60779 77.475043 502.75977 78.660156 L 503.03711 80.814453 L 499.4375 86.523438 L 495.83789 92.230469 L 495.83789 97.041016 L 495.83789 101.84961 L 497.37305 103.31641 C 498.53456 104.42596 499.01703 105.48444 499.35742 107.67188 C 500.19642 113.06337 503.94044 122.69819 504.83398 121.76367 C 504.98574 121.60495 504.36292 118.97932 503.44922 115.92773 C 501.28833 108.71077 502.38594 105.15427 504.68555 111.92188 C 505.22368 113.50556 506.78524 116.59268 508.15625 118.7832 L 510.65039 122.76562 L 510.33594 125.27148 C 509.9374 128.46048 510.51061 129.09649 516.71875 132.35742 C 520.58632 134.3889 521.67282 134.74345 523.14258 134.45508 C 524.64866 134.15957 525.14542 134.3423 526.49414 135.67578 C 527.36531 136.53711 529.24236 137.63579 530.66406 138.11719 C 532.08578 138.5986 533.68565 139.41575 534.21875 139.93359 C 534.75185 140.45139 535.61059 141.04298 536.12891 141.25 C 536.817 141.52483 536.99213 141.9637 536.77344 142.875 C 536.43154 144.29974 537.03996 144.97261 540.57617 147.08203 C 542.6583 148.32404 543.02258 148.39564 543.875 147.7207 C 547.85319 144.57079 549.0927 153.00769 545.48242 158.66211 C 543.28438 162.10467 543.12428 162.87583 542.93359 170.8418 C 542.91588 171.5815 543.70155 173.49301 544.68164 175.08984 C 545.66174 176.68667 547.45464 179.84783 548.66406 182.11523 C 551.20539 186.8797 551.66591 187.38262 555.31641 189.35547 C 559.5508 191.64386 559.60678 191.84532 560.55859 208.26172 C 561.56735 225.66046 562.38087 231.4104 564.14062 233.59766 C 565.50081 235.28829 565.73622 237.14379 564.81836 238.9375 C 564.33091 239.89008 564.40694 240.18789 565.30078 240.80859 C 566.18949 241.42574 566.2668 241.71207 565.76367 242.55469 C 564.66236 244.39905 569.17794 251.04586 572.94727 253.12891 C 574.70034 254.09771 580.12305 254.64265 580.12305 253.84961 C 580.12305 253.65879 578.98027 252.23941 577.58398 250.69531 C 574.96516 247.79929 574.48737 246.31309 575.80664 245.16797 C 576.9883 244.14229 576.73349 242.11985 575.29883 241.13672 C 573.72651 240.05926 573.72406 239.10767 575.28125 236.45703 L 576.5 234.38086 L 575.20508 232.60547 L 573.91016 230.83008 L 575.80664 230.83008 L 577.70312 230.83008 L 577.45898 229.50195 C 577.24702 228.34223 577.4652 228.09668 579.16992 227.5625 C 582.77026 226.43433 583.22291 224.96536 581.35742 220.47266 C 581.22056 220.14305 582.01765 220.00919 583.43359 220.12695 C 586.23117 220.35967 586.83526 219.88457 588.4707 216.14844 C 589.16759 214.55642 590.22523 212.53514 590.82227 211.6582 C 591.70486 210.36187 591.84624 209.62759 591.57422 207.73047 L 591.23828 205.39844 L 593.26953 203.27344 C 594.41252 202.07804 596.14594 200.91069 597.23242 200.60352 C 601.36887 199.43406 602.61758 196.97991 603.44531 188.39258 C 603.80022 184.71056 604.15404 183.63971 606.20508 180.03516 C 609.16587 174.83182 609.28697 169.76172 606.45117 169.76172 C 606.21761 169.76172 604.97968 168.92655 603.69922 167.9043 C 601.86494 166.43996 600.90347 166.04492 599.16797 166.04492 C 597.59445 166.04492 595.9006 165.46033 593.24023 163.99805 C 591.19187 162.87215 588.86549 161.78708 588.07031 161.58594 C 586.84259 161.27541 586.67258 161.02384 586.9375 159.91992 C 587.57023 157.28329 584.44018 152.51932 581.69336 151.9375 C 577.64249 151.07948 576.32319 150.37051 572.82617 147.16797 L 569.07031 143.72852 L 565.58398 143.53906 C 563.6666 143.43495 561.01203 143.1653 559.68555 142.94141 L 557.27539 142.53516 L 557.27539 143.63867 C 557.27539 144.24527 557.04684 144.88785 556.76758 145.06836 C 556.48571 145.25056 556.25595 144.8526 556.25195 144.17188 C 556.23041 140.77617 553.82069 140.91923 550.5918 144.50781 L 548.49219 146.8418 L 547.16797 145.82031 C 546.01926 144.93206 545.63134 144.88185 544.20898 145.44336 C 542.76616 146.01294 542.40398 145.95838 541.16406 144.97656 L 539.75781 143.86133 L 539.9043 139.76562 C 540.08571 134.70935 539.73436 134.18359 536.16992 134.18359 L 533.4668 134.18359 L 534.66211 131.39453 C 536.4837 127.14485 536.73087 125.31748 535.53906 124.92188 C 533.8845 124.37265 531.9691 125.51419 531.16406 127.5293 C 529.85437 130.80759 525.41843 131.36243 523.27734 128.51562 C 521.74326 126.4759 522.10743 119.82268 524.02148 114.91992 C 524.77371 112.99313 528.76401 111.14821 532.35547 111.06641 C 534.19307 111.02457 536.22947 110.76034 536.88086 110.47852 C 538.39762 109.82231 543.60583 110.85432 544.12305 111.91406 C 544.32754 112.33302 544.7589 114.05108 545.08203 115.73047 C 546.13823 121.21961 547.85729 119.65649 547.72852 113.32422 C 547.62371 108.16987 548.28822 106.66996 551.42188 104.98438 C 554.67229 103.23592 557.18271 100.19438 557.59375 97.505859 C 557.81576 96.053829 558.06378 95.566885 558.34375 96.039062 C 558.65489 96.563844 559.41973 96.026638 561.30859 93.957031 C 562.90536 92.207442 564.28177 91.167409 565.00586 91.162109 C 566.43196 91.152059 566.95794 90.768532 568.08008 88.923828 C 569.48051 86.621639 574.53711 84.422266 574.53711 86.115234 C 574.53711 87.111178 574.5265 87.110342 578.77734 85.896484 C 583.91346 84.429829 584.56284 83.369731 580.66016 82.822266 C 578.81078 82.562833 578.61553 82.402301 578.92969 81.40625 C 580.02861 77.922211 578.22833 77.246895 573.94336 79.533203 C 571.31435 80.93594 571.88793 79.910568 574.69141 78.195312 C 576.12799 77.316378 578.23015 76.705827 581.13867 76.324219 C 586.1389 75.668165 590.52607 74.532581 591.57617 73.621094 C 593.16588 72.241238 592.12699 71.007779 589.34766 70.974609 L 587.99219 70.957031 L 589.00781 70.365234 C 590.53596 69.47256 590.53762 69.464758 589.37109 68.328125 C 588.50237 67.481647 588.29136 66.677074 588.31836 64.316406 C 588.36149 60.540025 588.23407 60.449506 585.25977 62.142578 L 582.77539 63.556641 L 581.57617 62.511719 C 580.91644 61.936935 580.60552 61.455576 580.88477 61.441406 C 584.40104 61.262743 581.2949 57.183594 577.64258 57.183594 L 575.35156 57.183594 L 573.00977 59.791016 C 570.98672 62.044656 570.69663 62.648114 570.87305 64.228516 C 571.09108 66.181808 570.42584 66.988091 566.92773 69.001953 C 566.03775 69.514313 565.05611 70.630806 564.74805 71.484375 C 563.53288 74.851409 561.05478 74.202678 561.8457 70.724609 C 562.21927 69.081797 561.74799 68.648827 557.5293 66.757812 L 552.95898 64.708984 L 552.80664 62.914062 C 552.61667 60.66059 555.22876 58.521716 561.80859 55.541016 C 564.59912 54.276891 566.1143 53.30164 566.0332 52.824219 C 565.94142 52.28401 566.98712 51.890821 569.8418 51.390625 C 575.26784 50.439875 576.54425 49.661144 576.56055 47.292969 C 576.56845 46.147362 578.13676 45.5 580.9082 45.5 C 581.99626 45.5 585.20227 47.818751 585.19727 48.601562 C 585.18987 49.706893 581.96205 52.404297 580.64648 52.404297 C 578.8854 52.404297 577.58398 52.879973 577.58398 53.523438 C 577.58398 53.78425 578.17613 53.998047 578.89844 53.998047 C 579.62074 53.998047 581.16154 54.708758 582.32422 55.578125 C 584.79827 57.428025 587.05195 57.923712 586.83984 56.572266 C 586.73352 55.894951 587.0793 55.715844 588.36328 55.777344 L 590.02344 55.855469 L 589.90625 53.806641 L 589.78711 51.757812 L 591.54102 52.103516 C 593.10221 52.409832 596.37109 51.352238 596.37109 50.541016 C 596.37109 50.407395 595.19343 49.673078 593.75391 48.910156 C 592.07012 48.017786 591.35644 47.381919 591.75391 47.125 C 592.1699 46.856122 591.40681 45.861153 589.41992 44.080078 C 585.46213 40.532296 585.40518 40.506546 584.11914 41.851562 L 583 43.021484 L 582.57031 41.806641 C 582.35288 41.191896 581.84128 40.878292 581.20117 40.833984 z M 210.07227 51.873047 L 211.82227 53.763672 C 213.74087 55.837391 214.83799 55.902261 218.95898 54.177734 C 222.42357 52.727886 221.02912 51.873047 215.19531 51.873047 L 210.07227 51.873047 z M 636.2832 51.873047 L 638.0332 53.763672 C 639.9518 55.837391 641.04893 55.902261 645.16992 54.177734 C 648.63451 52.727886 647.24006 51.873047 641.40625 51.873047 L 636.2832 51.873047 z M 226.29492 68.835938 C 226.06233 68.806789 225.79052 68.840083 225.48047 68.953125 C 223.96551 69.505467 223.41422 70.211682 222.46875 72.8125 C 221.89154 74.400331 223.21118 74.702041 225.48242 73.5 C 227.65277 72.351436 227.92308 69.03998 226.29492 68.835938 z M 652.50586 68.835938 C 652.27327 68.806788 652.00146 68.840083 651.69141 68.953125 C 650.17645 69.505467 649.62711 70.211682 648.68164 72.8125 L 648.67969 72.8125 C 648.10248 74.400331 649.42212 74.702041 651.69336 73.5 C 653.86371 72.351436 654.13402 69.03998 652.50586 68.835938 z M 408.2207 72.052734 C 407.58527 72.052734 407.82196 72.458766 411.54883 77.773438 C 415.00336 82.699728 415.8004 82.747404 413.32031 77.880859 C 411.76997 74.838688 409.33154 72.052734 408.2207 72.052734 z M 834.43164 72.052734 C 833.79621 72.052734 834.0329 72.458766 837.75977 77.773438 C 841.2143 82.699727 842.01134 82.747404 839.53125 77.880859 C 837.98091 74.838688 835.54248 72.052734 834.43164 72.052734 z M 164.55078 75.103516 C 164.08273 75.13196 163.28815 75.868543 162.10352 77.337891 C 159.4115 80.676901 159.45684 80.983652 162.66992 81.21875 C 164.13602 81.326012 165.7359 81.457719 166.22461 81.511719 C 167.54619 81.657822 167.44048 78.646153 166.09766 77.894531 C 165.53914 77.581914 165.08203 76.869121 165.08203 76.3125 C 165.08203 75.486875 164.91482 75.081392 164.55078 75.103516 z M 590.76172 75.103516 C 590.29367 75.13196 589.49909 75.868543 588.31445 77.337891 C 585.62243 80.676901 585.66778 80.983652 588.88086 81.21875 C 590.34696 81.326012 591.94684 81.457719 592.43555 81.511719 C 593.75713 81.657822 593.65141 78.646153 592.30859 77.894531 C 591.75007 77.581914 591.29297 76.869121 591.29297 76.3125 C 591.29297 75.486875 591.12576 75.081392 590.76172 75.103516 z M 417.61914 85.498047 C 417.01151 85.435813 416.98818 85.993421 416.71289 87.585938 L 416.36719 89.576172 L 418.6582 89.576172 C 420.45987 89.576172 421.06973 89.340133 421.51562 88.46875 C 422.18169 87.167103 422.3214 87.32957 419.52344 86.189453 C 418.55722 85.79574 417.98372 85.535387 417.61914 85.498047 z M 843.83008 85.498047 C 843.22245 85.435813 843.19912 85.993421 842.92383 87.585938 L 842.58008 89.576172 L 844.86914 89.576172 C 846.67081 89.576172 847.28066 89.340133 847.72656 88.46875 C 848.39263 87.167103 848.53232 87.32957 845.73438 86.189453 C 844.76815 85.79574 844.19466 85.535387 843.83008 85.498047 z M 418.58789 91.707031 C 418.13756 91.642485 417.92761 91.936585 418.21484 92.628906 C 419.82686 96.514236 418.01661 100.36426 414.33398 100.88086 C 410.74901 101.38376 409.75494 102.99508 410.93164 106.39844 C 411.68996 108.59304 411.91842 108.59267 413.52148 106.39453 C 414.38625 105.20875 416.08073 104.04732 418.66016 102.87109 L 422.50781 101.11523 L 422.50781 99.458984 C 422.50781 96.97911 421.65394 94.338917 420.40039 92.943359 C 419.72906 92.195986 419.03822 91.771578 418.58789 91.707031 z M 844.79883 91.707031 C 844.3485 91.642485 844.13855 91.936585 844.42578 92.628906 C 846.0378 96.514236 844.22755 100.36426 840.54492 100.88086 C 836.95995 101.38376 835.96588 102.99508 837.14258 106.39844 C 837.9009 108.59304 838.12936 108.59267 839.73242 106.39453 C 840.59719 105.20875 842.29166 104.04732 844.87109 102.87109 L 848.71875 101.11523 L 848.71875 99.458984 C 848.71875 96.97911 847.86488 94.338917 846.61133 92.943359 C 845.93999 92.195986 845.24916 91.771578 844.79883 91.707031 z M 117.83398 122.0625 C 117.63665 122.05067 117.45278 122.05308 117.28711 122.07031 L 115.57617 122.24805 L 120.9082 124.98242 C 126.9199 128.06551 127.00195 128.09422 127.00195 127.06055 C 127.00195 125.52577 120.79404 122.23989 117.83398 122.0625 z M 544.04492 122.0625 C 543.84758 122.05067 543.66371 122.05308 543.49805 122.07031 L 541.78711 122.24805 L 547.11914 124.98242 C 553.13084 128.06551 553.21289 128.09422 553.21289 127.06055 C 553.21289 125.52577 547.00498 122.23989 544.04492 122.0625 z M 403.81445 130.53711 C 403.32601 130.55982 403.21289 131.15335 403.21289 133.12695 C 403.21289 136.13563 403.77675 136.399 405.15039 134.03125 C 406.08184 132.42576 405.58995 130.87818 404.04688 130.56055 C 403.96099 130.54287 403.88423 130.53386 403.81445 130.53711 z M 830.02539 130.53711 C 829.53694 130.55982 829.42383 131.15335 829.42383 133.12695 C 829.42383 136.13563 829.98769 136.399 831.36133 134.03125 C 832.29278 132.42576 831.80089 130.87818 830.25781 130.56055 C 830.17193 130.54287 830.09517 130.53386 830.02539 130.53711 z M 347.46094 145.97266 C 346.6488 146.13623 346.4558 149.535 347.1875 150.77734 C 347.57821 151.44072 348.3913 151.22485 348.70312 150.375 C 349.26061 148.85556 348.39364 145.78479 347.46094 145.97266 z M 773.67188 145.97266 C 772.85974 146.13623 772.66674 149.535 773.39844 150.77734 C 773.78915 151.44072 774.60224 151.22485 774.91406 150.375 C 775.47155 148.85556 774.60457 145.78479 773.67188 145.97266 z M 412.875 146.00195 C 412.41177 146.05068 411.50897 146.37145 409.92773 146.99023 L 408.77344 147.44336 L 410.12305 149.57422 C 411.80305 152.22927 412.14225 152.23702 412.54102 149.62891 C 412.71575 148.48617 413.00697 147.14381 413.18945 146.64648 C 413.36212 146.17586 413.33823 145.95322 412.875 146.00195 z M 839.08594 146.00195 C 838.6227 146.05068 837.71991 146.37145 836.13867 146.99023 L 834.98438 147.44336 L 836.33398 149.57422 C 838.01398 152.22927 838.35318 152.23702 838.75195 149.62891 C 838.92668 148.48617 839.21791 147.14381 839.40039 146.64648 C 839.57306 146.17586 839.54917 145.95322 839.08594 146.00195 z M 400.12695 149.89062 L 396.7207 153.54297 C 394.84712 155.55122 392.3438 157.64199 391.15625 158.19141 C 388.73211 159.31291 388.6691 159.54103 389.81445 163.05664 C 390.747 165.91909 391.98073 166.96061 395.15039 167.56055 C 398.23116 168.14364 398.49297 167.95997 400.18945 164.04688 C 401.80377 160.32323 402.02991 158.38019 401.09766 156.24023 C 400.58994 155.07484 400.66345 154.70932 401.60938 153.65625 L 402.71094 152.42969 L 401.41992 151.16016 L 400.12695 149.89062 z M 826.33789 149.89062 L 822.93164 153.54297 C 821.05806 155.55122 818.55474 157.64199 817.36719 158.19141 C 814.94305 159.31291 814.88004 159.54103 816.02539 163.05664 C 816.95794 165.91909 818.19167 166.96061 821.36133 167.56055 C 824.4421 168.14364 824.70391 167.95996 826.40039 164.04688 C 828.01471 160.32323 828.24084 158.38019 827.30859 156.24023 C 826.80087 155.07484 826.87439 154.70932 827.82031 153.65625 L 828.92188 152.42969 L 827.63086 151.16016 L 826.33789 149.89062 z M 408.03711 159.67188 C 406.17539 159.67188 404.73633 159.90357 404.73633 160.20312 C 404.73633 160.50267 406.17539 160.73438 408.03711 160.73438 C 409.89884 160.73438 411.33594 160.50268 411.33594 160.20312 C 411.33594 159.90358 409.89884 159.67188 408.03711 159.67188 z M 834.24805 159.67188 C 832.38633 159.67188 830.94727 159.90357 830.94727 160.20312 C 830.94727 160.50267 832.38633 160.73438 834.24805 160.73438 C 836.10978 160.73438 837.54688 160.50268 837.54688 160.20312 C 837.54687 159.90358 836.10978 159.67188 834.24805 159.67188 z M 422.4082 162.40234 C 421.90574 162.34336 421.43378 162.55914 421.03125 163.06641 C 420.51016 163.72309 420.67542 164.00052 422.02148 164.72852 C 423.21093 165.37181 423.48855 165.76189 423.07227 166.19727 C 422.09667 167.2176 422.42506 167.53795 425.35156 168.42773 C 428.9988 169.53664 430.82115 171.35337 430.50977 173.57227 C 430.11593 176.37867 435.43797 177.80123 438.10938 175.60352 C 439.78224 174.2273 440.05832 174.25833 441.68945 176.00195 C 442.44081 176.80513 443.74427 177.98804 444.58594 178.63086 C 447.32659 180.72405 447.7305 179.80348 445.41406 176.74219 C 444.60874 175.67793 443.61032 173.95598 443.19531 172.91602 C 441.02648 167.48121 430.481 162.94964 427.29297 166.08203 L 426.17578 167.17969 L 424.96875 164.88672 C 424.16463 163.35924 423.24565 162.50066 422.4082 162.40234 z M 848.61914 162.40234 C 848.11668 162.34336 847.64472 162.55914 847.24219 163.06641 C 846.7211 163.72309 846.88636 164.00052 848.23242 164.72852 C 849.42187 165.37181 849.69948 165.76189 849.2832 166.19727 C 848.3076 167.2176 848.636 167.53795 851.5625 168.42773 C 855.20974 169.53664 857.03208 171.35337 856.7207 173.57227 C 856.32686 176.37867 861.6489 177.80123 864.32031 175.60352 C 865.99318 174.2273 866.26926 174.25833 867.90039 176.00195 C 868.65175 176.80513 869.9552 177.98804 870.79688 178.63086 C 873.53751 180.72405 873.94144 179.80348 871.625 176.74219 C 870.81968 175.67793 869.82126 173.95598 869.40625 172.91602 C 867.23742 167.48121 856.69194 162.94964 853.50391 166.08203 L 852.38672 167.17969 L 851.17969 164.88672 C 850.37556 163.35924 849.45658 162.50066 848.61914 162.40234 z M 830.11914 162.45312 C 829.43872 162.55105 829.42383 163.52811 829.42383 166.31055 C 829.42383 170.91226 830.53684 172.00069 831.18945 168.03711 L 831.56055 165.7793 L 832.17773 167.60547 C 832.97772 169.97438 833.99414 170.35147 833.99414 168.2793 C 833.99414 164.87521 833.43138 163.47445 831.83008 162.89062 C 831.23683 162.67433 830.78988 162.51399 830.45312 162.46289 C 830.32685 162.44373 830.21634 162.43914 830.11914 162.45312 z M 404.24219 162.46289 C 403.23197 162.30958 403.21289 163.13062 403.21289 166.31055 C 403.21289 170.91226 404.32591 172.00069 404.97852 168.03711 L 405.34961 165.7793 L 405.9668 167.60547 C 406.76679 169.97438 407.7832 170.35147 407.7832 168.2793 C 407.7832 164.87521 407.22044 163.47445 405.61914 162.89062 C 405.02589 162.67433 404.57893 162.51399 404.24219 162.46289 z M 386.29492 172.16406 C 385.52849 172.13647 384.95878 172.22491 384.71484 172.46484 C 383.9692 173.19826 384.56336 173.49979 389.3418 174.81055 C 393.54979 175.96482 396.61133 176.42467 396.61133 175.9043 C 396.61133 174.5589 389.61614 172.28361 386.29492 172.16406 z M 812.50586 172.16406 C 811.73942 172.13647 811.16971 172.22491 810.92578 172.46484 C 810.18014 173.19826 810.77429 173.49979 815.55273 174.81055 C 819.76072 175.96482 822.82227 176.42467 822.82227 175.9043 C 822.82227 174.5589 815.82708 172.28361 812.50586 172.16406 z M 435.54688 180.31836 C 435.2451 180.21859 434.5922 182.19173 434.20508 184.76562 C 433.2098 191.38303 432.34836 192.20037 428.78711 189.89844 C 425.99854 188.09596 425.46026 186.95371 426.35156 184.72266 C 427.29439 182.36264 426.84023 181.99547 422.95703 181.98438 C 419.62069 181.97484 417.69724 183.20641 417.17578 185.68945 L 416.8457 187.26758 L 415.04492 186.48047 C 412.06277 185.1773 411.47228 185.44894 407.10156 190.14648 C 403.64189 193.86486 402.49776 194.75292 400.16602 195.5293 C 395.72567 197.00776 393.75447 198.2591 392.47461 200.41211 L 391.28125 202.41992 L 391.28125 210.01367 L 391.28125 217.60547 L 390.10352 218.88867 L 388.92578 220.17188 L 390.23633 220.51562 C 390.95753 220.70502 392.28739 220.69562 393.19141 220.49609 C 394.09542 220.29655 395.94593 220.00703 397.30273 219.85156 C 398.65953 219.69611 400.5141 219.0402 401.42383 218.39453 C 406.43101 214.84071 413.82855 214.46127 415.93555 217.65039 C 416.57609 218.61988 417.1683 219.50657 417.25 219.61914 C 417.33173 219.73172 417.96899 219.43274 418.66602 218.95508 C 420.39191 217.77236 420.32619 217.69406 420.57227 221.25195 C 420.72025 223.39161 421.11208 224.78954 421.77734 225.5625 L 422.76172 226.70703 L 427.79102 226.45508 L 432.82031 226.20508 L 433.86328 224.66797 C 434.43621 223.82255 437.24127 220.60426 440.09766 217.51562 C 442.95404 214.42697 445.4332 211.31155 445.60547 210.59375 C 446.53233 206.73138 443.65872 197.59448 440.69727 194.98828 C 439.41228 193.85742 439.11308 193.16987 439.00586 191.0918 C 438.92606 189.54481 438.26151 187.29781 437.29102 185.28711 C 436.42015 183.48279 435.70898 181.62576 435.70898 181.16211 C 435.70898 180.61342 435.64747 180.35162 435.54688 180.31836 z M 861.75781 180.31836 C 861.45604 180.21859 860.80314 182.19174 860.41602 184.76562 C 859.42074 191.38303 858.5593 192.20037 854.99805 189.89844 C 852.20948 188.09596 851.6712 186.95371 852.5625 184.72266 C 853.50533 182.36264 853.05117 181.99546 849.16797 181.98438 C 845.83163 181.97484 843.90818 183.20641 843.38672 185.68945 L 843.05664 187.26758 L 841.25586 186.48047 C 838.27371 185.1773 837.68322 185.44894 833.3125 190.14648 C 829.85283 193.86486 828.70869 194.75292 826.37695 195.5293 C 821.9366 197.00776 819.96541 198.2591 818.68555 200.41211 L 817.49219 202.41992 L 817.49219 210.01367 L 817.49219 217.60547 L 816.31445 218.88867 L 815.13672 220.17188 L 816.44727 220.51562 C 817.16847 220.70502 818.49832 220.69562 819.40234 220.49609 C 820.30635 220.29655 822.15687 220.00703 823.51367 219.85156 C 824.87047 219.69611 826.72504 219.0402 827.63477 218.39453 C 832.64195 214.84071 840.03948 214.46127 842.14648 217.65039 C 842.78702 218.61988 843.37924 219.50657 843.46094 219.61914 C 843.54267 219.73172 844.17992 219.43274 844.87695 218.95508 C 846.60284 217.77236 846.53712 217.69406 846.7832 221.25195 C 846.93118 223.39161 847.32302 224.78954 847.98828 225.5625 L 848.97266 226.70703 L 854.00195 226.45508 L 859.0332 226.20508 L 860.07422 224.66797 C 860.64715 223.82255 863.4522 220.60427 866.30859 217.51562 C 869.16497 214.42697 871.64414 211.31155 871.81641 210.59375 C 872.74327 206.73138 869.86965 197.59448 866.9082 194.98828 C 865.62321 193.85742 865.32402 193.16987 865.2168 191.0918 C 865.137 189.54481 864.47244 187.29781 863.50195 185.28711 C 862.63108 183.48279 861.91992 181.62576 861.91992 181.16211 C 861.91992 180.61342 861.8584 180.35162 861.75781 180.31836 z M 303.49414 183.53906 C 302.66442 183.60792 301.19688 184.69423 299.08008 186.5625 C 294.72232 190.40862 294.26375 191.19045 295.06641 193.39844 C 295.51212 194.62447 295.3894 195.29718 294.3418 197.39258 C 292.95988 200.15666 293.21951 203.2763 294.94727 204.67773 C 295.93491 205.47886 295.75329 205.47478 297.29883 204.73828 C 298.23095 204.2941 298.90915 203.13405 299.86523 200.35547 C 304.06234 188.15791 305.31953 183.38758 303.49414 183.53906 z M 729.70508 183.53906 C 728.87535 183.60792 727.40977 184.69423 725.29297 186.5625 C 720.93521 190.40862 720.47468 191.19045 721.27734 193.39844 C 721.72305 194.62447 721.60033 195.29718 720.55273 197.39258 C 719.17081 200.15666 719.43044 203.2763 721.1582 204.67773 C 722.14584 205.47886 721.96423 205.47478 723.50977 204.73828 C 724.44189 204.2941 725.12009 203.13405 726.07617 200.35547 C 730.27328 188.15791 731.53047 183.38758 729.70508 183.53906 z M 468.11523 221.39258 C 467.64901 221.5551 464.15648 230.44512 464.14648 231.49414 C 464.13943 232.25365 464.73618 231.87948 467.95117 229.10547 C 471.55291 225.99773 471.74521 225.66712 470.10742 225.42383 C 469.18579 225.28695 468.9353 224.86354 468.80664 223.23047 C 468.71896 222.11712 468.40793 221.29053 468.11523 221.39258 z M 894.32617 221.39258 C 893.85995 221.5551 890.36742 230.44512 890.35742 231.49414 C 890.35037 232.25365 890.94712 231.87948 894.16211 229.10547 C 897.76385 225.99773 897.95615 225.66712 896.31836 225.42383 C 895.39673 225.28695 895.14624 224.86354 895.01758 223.23047 C 894.9299 222.11712 894.61887 221.29053 894.32617 221.39258 z M 887.35742 231.09766 C 886.75329 231.1678 885.50656 231.8125 883.39453 233.08398 C 881.21767 234.39449 878.06619 236.25556 876.39062 237.21875 C 872.66544 239.36017 872.92025 239.14193 873.32227 239.82227 C 874.42108 241.68173 886.5375 235.13591 887.66016 232.07617 C 887.87289 231.49635 887.86951 231.16703 887.57812 231.10352 C 887.51742 231.09028 887.44373 231.08764 887.35742 231.09766 z M 461.36719 231.10352 C 460.88157 230.99766 459.59734 231.63085 457.18359 233.08398 C 455.00673 234.39449 451.85525 236.25556 450.17969 237.21875 C 446.4545 239.36017 446.70931 239.14193 447.11133 239.82227 C 448.21014 241.68173 460.32656 235.13591 461.44922 232.07617 C 461.66196 231.49635 461.65856 231.16703 461.36719 231.10352 z M 424.12891 231.36133 L 423.57812 233.01562 C 423.27489 233.92538 423.15148 234.88132 423.30469 235.14062 C 423.65333 235.73058 424.76831 235.10262 427.07617 233.01367 L 428.85352 231.4043 L 426.49219 231.38281 L 424.12891 231.36133 z M 850.33984 231.36133 L 849.78906 233.01562 C 849.48582 233.92538 849.36242 234.88133 849.51562 235.14062 C 849.86426 235.73058 850.97925 235.10262 853.28711 233.01367 L 855.06445 231.4043 L 852.70312 231.38281 L 850.33984 231.36133 z "
       clip-path="url(#clipPath1319)">
       <animateTransform
            id="earth_1"
            attributeName="transform"
            type="translate"
            from="0 0"
            to="-426.211 0"
            begin="0s;earth_1.end"
            dur="15s"
            />
     </path>

  </g>
</svg>
